<svg width="70" height="71" xmlns="http://www.w3.org/2000/svg" xmlns:xlink="http://www.w3.org/1999/xlink" xml:space="preserve" overflow="hidden"><g transform="translate(-460 -333)"><path d="M32.0833 14.5833C32.0833 12.9725 33.3891 11.6667 35 11.6667 36.6109 11.6667 37.9167 12.9725 37.9167 14.5833L37.9167 35.4603 47.3748 26.0021 51.4996 30.1268 35.0003 46.6261 18.5012 30.1268 22.626 26.0021 32.0833 35.4594 32.0833 14.5833Z" fill="#984ADE" transform="matrix(1 0 0 1.01429 460 333)"/><path d="M11.6667 40.8333 17.5 40.8333 17.5 52.5 52.5 52.5 52.5 40.8333 58.3333 40.8333 58.3333 52.5C58.3333 55.7218 55.7218 58.3333 52.5 58.3333L17.5 58.3333C14.2783 58.3333 11.6667 55.7218 11.6667 52.5L11.6667 40.8333Z" fill="#984ADE" transform="matrix(1 0 0 1.01429 460 333)"/></g></svg>