<svg width="50" height="50" xmlns="http://www.w3.org/2000/svg" xmlns:xlink="http://www.w3.org/1999/xlink" xml:space="preserve" overflow="hidden"><g transform="translate(-622 -393)"><path d="M663 397 631 397C628.24 397 626 399.24 626 402L626 434C626 436.76 628.24 439 631 439L663 439C665.76 439 668 436.76 668 434L668 402C668 399.24 665.76 397 663 397ZM639 413 639 432 633 432 633 413 639 413ZM633 407.47C633 406.07 634.2 405 636 405 637.8 405 638.93 406.07 639 407.47 639 408.87 637.88 410 636 410 634.2 410 633 408.87 633 407.47ZM661 432 655 432C655 432 655 422.74 655 422 655 420 654 418 651.5 417.96L651.42 417.96C649 417.96 648 420.02 648 422 648 422.91 648 432 648 432L642 432 642 413 648 413 648 415.56C648 415.56 649.93 413 653.81 413 657.78 413 661 415.73 661 421.26L661 432Z" fill="#984ADE"/></g></svg>