<svg width="890" height="703" xmlns="http://www.w3.org/2000/svg" xmlns:xlink="http://www.w3.org/1999/xlink" xml:space="preserve" overflow="hidden"><defs><clipPath id="clip0"><rect x="1752" y="1695" width="890" height="703"/></clipPath><clipPath id="clip1"><rect x="1752" y="1695" width="605" height="658"/></clipPath><clipPath id="clip2"><rect x="1752" y="1695" width="605" height="658"/></clipPath><clipPath id="clip3"><rect x="2328" y="1740" width="315" height="658"/></clipPath><clipPath id="clip4"><rect x="2328" y="1740" width="315" height="658"/></clipPath></defs><g clip-path="url(#clip0)" transform="translate(-1752 -1695)"><g clip-path="url(#clip1)"><g clip-path="url(#clip2)"><g><path d="M3304.37 2942.2 3559.71 2370.74C3566.36 2355.85 3583.79 2349.17 3598.64 2355.85 3612.26 2361.97 3618.98 2377.18 3614.86 2391.14L3613.47 2394.91 3358.13 2966.37C3351.48 2981.27 3334.05 2987.94 3319.2 2981.27 3305.6 2975.14 3298.89 2959.93 3302.98 2945.97L3304.37 2942.2 3559.71 2370.74 3304.37 2942.2ZM3074.73 2647.65 3241.68 2480.16C3253.19 2468.62 3271.84 2468.62 3283.35 2480.16 3293.82 2490.64 3294.75 2507.07 3286.21 2518.65L3283.35 2521.97 3137.22 2668.56 3283.35 2815.14C3294.84 2826.7 3294.84 2845.42 3283.35 2856.95 3272.89 2867.44 3256.51 2868.4 3244.99 2859.81L3241.68 2856.95 3074.73 2689.46C3064.27 2678.97 3063.31 2662.55 3071.88 2650.96L3074.73 2647.65 3241.68 2480.16 3074.73 2647.65ZM3995.11 2419.86C4005.55 2409.38 3781.53 2474.45 3793.07 2483.04L3807.81 2483.04 3843.13 2647.65C3853.6 2658.14 3854.53 2674.56 3845.99 2686.15L3843.13 2689.46 3764.88 2856.95C3753.39 2868.49 3863.72 2797.8 3863.47 2788.05 3863.19 2778.27 3754.74 2809.93 3763.3 2798.37L3823.39 2760.61 3780.62 2668.56C3731.91 2619.69 4069.57 2516.28 4020.86 2467.41 4009.34 2455.87 3983.6 2431.4 3995.11 2419.86Z" stroke="#002060" stroke-width="27.4891" stroke-miterlimit="8" fill="#002060" fill-rule="evenodd" transform="matrix(1.01121 0 0 1 -1334.61 -644.555)"/></g></g></g><g clip-path="url(#clip3)"><g clip-path="url(#clip4)"><g><path d="M252.665 581.629 351.411 11.6684C358.436-4.00667 308.472 107.451 326.303 107.545 344.134 107.639 462.728-2.4668 458.399 12.2298L380.283 54.5492C290.46 254.995 399.23 406.629 309.407 607.074 302.384 622.75 283.988 629.759 268.317 622.733 253.954 616.293 246.868 600.289 251.197 585.596L252.665 581.629 313.085 1.20473 252.665 581.629ZM10.3118 271.691 186.502 95.4348C198.643 83.2881 218.331 83.2881 230.473 95.4348 241.51 106.477 242.515 123.757 233.483 135.933L230.473 139.422 76.268 293.682 230.473 447.944C242.616 460.091 242.616 479.781 230.473 491.928 219.434 502.972 202.16 503.975 189.989 494.939L186.502 491.928 10.3118 315.674C-0.727184 304.635-1.73049 287.353 7.30105 275.177L10.3118 271.691 186.502 95.4348 10.3118 271.691ZM601.067 95.4348C612.104 84.3925 629.378 83.3888 641.55 92.423L645.035 95.4348 821.225 271.691C832.266 282.73 833.269 300.012 824.235 312.186L821.225 315.674 645.035 491.928C632.895 504.076 613.21 504.076 601.067 491.928 590.028 480.889 589.023 463.608 598.057 451.431L601.067 447.944 755.268 293.682 601.067 139.422C588.924 127.275 588.924 107.581 601.067 95.4348Z" stroke="#002060" stroke-width="17.2605" stroke-miterlimit="8" fill="#002060" fill-rule="evenodd" transform="matrix(1.00907 0 0 1 1795.62 1747.23)"/></g></g></g></g></svg>