<svg width="788" height="578" xmlns="http://www.w3.org/2000/svg" xmlns:xlink="http://www.w3.org/1999/xlink" xml:space="preserve" overflow="hidden"><defs><clipPath id="clip0"><rect x="2905" y="453" width="280" height="414"/></clipPath><clipPath id="clip1"><rect x="2905" y="453" width="280" height="414"/></clipPath><clipPath id="clip2"><rect x="3555" y="453" width="138" height="414"/></clipPath><clipPath id="clip3"><rect x="3555" y="453" width="138" height="414"/></clipPath></defs><g transform="translate(-2905 -397)"><g clip-path="url(#clip0)"><g clip-path="url(#clip1)"><g><path d="M138.635 325.603 250.359 76.3715C253.272 69.8746 260.899 66.9689 267.396 69.8813 273.352 72.5509 276.289 79.1827 274.495 85.2735L273.886 86.9179 162.162 336.149C159.249 342.647 151.622 345.551 145.125 342.64 139.17 339.97 136.232 333.337 138.027 327.248L138.635 325.603 250.359 76.3715 138.635 325.603ZM38.1525 197.145 111.203 124.094C116.237 119.06 124.4 119.06 129.434 124.094 134.011 128.671 134.427 135.833 130.682 140.879L129.434 142.325 65.499 206.26 129.434 270.196C134.468 275.23 134.468 283.391 129.434 288.426 124.857 293.003 117.696 293.419 112.649 289.674L111.203 288.426 38.1525 215.375C33.5757 210.8 33.1598 203.637 36.9043 198.591L38.1525 197.145 111.203 124.094 38.1525 197.145ZM283.087 124.094C287.663 119.518 294.825 119.102 299.872 122.846L301.317 124.094 374.368 197.145C378.945 201.721 379.361 208.883 375.616 213.93L374.368 215.375 301.317 288.426C296.283 293.46 288.122 293.46 283.087 288.426 278.51 283.85 278.094 276.688 281.839 271.641L283.087 270.196 347.021 206.26 283.087 142.325C278.053 137.291 278.053 129.129 283.087 124.094Z" fill="#FFFFFF" transform="matrix(1 0 0 1.00359 2905 453)"/></g></g></g><g clip-path="url(#clip2)"><g clip-path="url(#clip3)"><g><path d="M138.896 326.215 250.83 76.5152C253.749 70.0061 261.39 67.095 267.899 70.0128 273.866 72.6874 276.809 79.3317 275.011 85.434L274.402 87.0815 162.467 336.782C159.549 343.291 151.907 346.202 145.398 343.284 139.431 340.61 136.488 333.965 138.286 327.863L138.896 326.215 250.83 76.5152 138.896 326.215ZM38.2243 197.516 111.412 124.328C116.456 119.284 124.634 119.284 129.678 124.328 134.263 128.913 134.68 136.088 130.928 141.145L129.678 142.593 65.6223 206.648 129.678 270.704C134.721 275.748 134.721 283.925 129.678 288.969 125.092 293.554 117.917 293.971 112.861 290.219L111.412 288.969 38.2243 215.781C33.6389 211.196 33.2222 204.021 36.9737 198.965L38.2243 197.516 111.412 124.328 38.2243 197.516ZM283.62 124.328C288.204 119.742 295.38 119.326 300.436 123.077L301.884 124.328 375.072 197.516C379.658 202.1 380.075 209.276 376.322 214.332L375.072 215.781 301.884 288.969C296.84 294.013 288.664 294.013 283.62 288.969 279.034 284.384 278.617 277.209 282.37 272.153L283.62 270.704 347.674 206.648 283.62 142.593C278.576 137.549 278.576 129.372 283.62 124.328Z" fill="#FFFFFF" transform="matrix(1 0 0 1.0017 3279.7 453)"/></g></g></g><text fill="#FFFFFF" font-family="OCR A Extended,OCR A Extended_MSFontService,sans-serif" font-weight="700" font-stretch="expanded" font-size="275" transform="matrix(1 0 0 1 3164.95 754)">JY</text></g></svg>