<svg width="50" height="50" xmlns="http://www.w3.org/2000/svg" xmlns:xlink="http://www.w3.org/1999/xlink" xml:space="preserve" overflow="hidden"><g transform="translate(-767 -360)"><path d="M781 364C775.489 364 771 368.489 771 374L771 396C771 401.511 775.489 406 781 406L803 406C808.511 406 813 401.511 813 396L813 374C813 368.489 808.511 364 803 364L781 364ZM780 376 804 376C804.18 376 804.35 376.02 804.51 376.07L794.68 385.891C793.2 387.371 790.791 387.371 789.31 385.891L779.49 376.07C779.65 376.02 779.82 376 780 376ZM778.07 377.49 785.59 385 778.07 392.51C778.02 392.35 778 392.18 778 392L778 378C778 377.82 778.02 377.65 778.07 377.49ZM805.93 377.49C805.98 377.65 806 377.82 806 378L806 392C806 392.18 805.98 392.35 805.93 392.51L798.4 385 805.93 377.49ZM787 386.41 787.891 387.31C789.021 388.44 790.51 389 791.99 389 793.48 389 794.96 388.44 796.09 387.31L796.99 386.41 804.51 393.93C804.35 393.98 804.18 394 804 394L780 394C779.82 394 779.65 393.98 779.49 393.93L787 386.41Z" fill="#984ADE"/></g></svg>