<svg width="96" height="96" xmlns="http://www.w3.org/2000/svg" xmlns:xlink="http://www.w3.org/1999/xlink" xml:space="preserve" overflow="hidden"><g transform="translate(-574 -397)"><path d="M621.985 407C601.009 406.999 584.005 424.003 584.004 444.979 584.003 465.955 601.007 482.959 621.983 482.96 642.959 482.961 659.963 465.957 659.964 444.981 659.964 444.98 659.964 444.978 659.964 444.977 659.972 424.011 642.981 407.008 622.015 407 622.005 407 621.995 407 621.985 407ZM638.955 457.169 634.174 461.95 621.985 449.759 609.8 461.948 605.019 457.167 617.2 444.977 605.014 432.788 609.8 428.007 621.985 440.2 634.174 428.007 638.955 432.788 626.766 444.977Z" fill="#FFFFFF"/></g></svg>