<svg width="80" height="80" xmlns="http://www.w3.org/2000/svg" xmlns:xlink="http://www.w3.org/1999/xlink" xml:space="preserve" overflow="hidden"><g transform="translate(-377 -360)"><path d="M410.334 376.667 404.334 376.667C400.6 376.667 398.732 376.667 397.306 377.393 396.052 378.032 395.032 379.052 394.393 380.306 393.667 381.732 393.667 383.6 393.667 387.334L393.667 412.667C393.667 416.401 393.667 418.267 394.393 419.693 395.032 420.947 396.052 421.968 397.306 422.607 398.731 423.333 400.597 423.333 404.323 423.333L429.677 423.333C433.403 423.333 435.267 423.333 436.691 422.607 437.946 421.968 438.968 420.946 439.607 419.692 440.333 418.267 440.333 416.403 440.333 412.677L440.333 406.667M443.667 390 443.667 373.333M443.667 373.333 427 373.333M443.667 373.333 420.333 396.667" stroke="#984ADE" stroke-width="6.66674" stroke-linecap="round" stroke-linejoin="round" fill="none"/></g></svg>