<svg width="30" height="30" xmlns="http://www.w3.org/2000/svg" xmlns:xlink="http://www.w3.org/1999/xlink" xml:space="preserve" overflow="hidden"><g transform="translate(-625 -345)"><path d="M640 348C633.373 348 628 353.373 628 360 628 365.623 631.872 370.328 637.092 371.63 637.036 371.468 637 371.28 637 371.047L637 368.996C636.513 368.996 635.697 368.996 635.492 368.996 634.671 368.996 633.941 368.643 633.587 367.987 633.194 367.258 633.126 366.143 632.152 365.461 631.863 365.234 632.083 364.975 632.416 365.01 633.031 365.184 633.541 365.606 634.021 366.232 634.499 366.859 634.724 367.001 635.617 367.001 636.05 367.001 636.698 366.976 637.308 366.88 637.636 366.047 638.203 365.28 638.896 364.918 634.9 364.507 632.993 362.519 632.993 359.82 632.993 358.658 633.488 357.534 634.329 356.587 634.053 355.647 633.706 353.73 634.435 353 636.233 353 637.32 354.166 637.581 354.481 638.477 354.174 639.461 354 640.495 354 641.531 354 642.519 354.174 643.417 354.483 643.675 354.17 644.763 353 646.565 353 647.297 353.731 646.946 355.656 646.667 356.594 647.503 357.539 647.995 358.66 647.995 359.82 647.995 362.517 646.091 364.504 642.101 364.917 643.199 365.49 644 367.1 644 368.313L644 371.047C644 371.151 643.977 371.226 643.965 371.315 648.641 369.676 652 365.236 652 360 652 353.373 646.627 348 640 348Z" fill="#984ADE"/></g></svg>